<?xml version="1.0" encoding="utf-8"?>
<!-- Generator: Adobe Illustrator 27.5.0, SVG Export Plug-In . SVG Version: 6.00 Build 0)  -->
<svg version="1.1" id="Layer_1" xmlns="http://www.w3.org/2000/svg" xmlns:xlink="http://www.w3.org/1999/xlink" x="0px" y="0px"
	 viewBox="0 0 140 144.2" style="enable-background:new 0 0 140 144.2;" xml:space="preserve">
<style type="text/css">
	.st0{fill:#2B5D81;}
	.st1{fill:#5F91AE;}
	.st2{fill:#0D1A27;}
	.st3{fill:#E2007A;}
</style>
<g>
	<path class="st0" d="M29.7,135.6c1.8-4.1,5.3-5.7,9.8-6.2c-0.7-0.5-1.1-0.8-1.6-1.1c-2.5-1.6-4.9-3.4-7.6-4.8c0,0-0.1-0.1-0.1-0.1
		c-1.4-1.1-1.4-1.1,0-2.2c5-4,9.8-8.1,14.1-12.9c5.1-5.7,9.2-12.1,11.5-19.5c0.8-2.5,1.1-5,1.4-7.6c0.3-3.1,0-6.2-0.8-9.2
		c-1.1-3.8-3.2-7.1-6.3-9.7c-7.7-6.6-19.2-6.1-26.4-1.5c-1.2,0.8-2.4,1.6-3.5,2.6c-0.1-0.1-0.1-0.1-0.2-0.2c2.1-3.4,4.7-6.4,7.8-8.8
		c1.5-1.2,2.1-2.4,1.9-4.3c-0.6-7.7,0.8-15.2,4-22.3c0.6-1.4,1.4-2.6,2.2-3.8c0.3-0.4,0.5-0.4,0.9-0.1c1.2,0.9,1.2,0.9,0.3,2.1
		c-5.8,7.8-5.8,21.2,4.1,27.9c3.5,2.4,7.4,3.8,11.7,4c3.4,0.1,6.5-0.8,9.4-2.6c0.7-0.4,1-0.3,1.4,0.3c1.8,2.9,3.9,5.6,6.4,7.9
		c0.6,0.6,1.3,1.2,2,1.6c1.3,0.7,2.1,1.7,2.9,2.9c3,5,7.4,8.6,12.5,11.3c0.8,0.4,0.9,0.8,0.8,1.6c-1,7-4.1,13-8.2,18.7
		c-4,5.6-8.8,10.3-14.6,14.1c-4.5,2.9-9.1,5.8-14.3,7.6c-0.6,0.2-1.3,0.4-2.2,0.7c1.5-2.3,2.8-4.4,3.8-6.7c-0.3-0.1-0.4,0.2-0.5,0.4
		c-2.1,2.4-4.6,4.3-7.2,6c-0.6,0.4-0.7,0.7-0.2,1.3c0.9,1.1,1.7,2.2,2.5,3.4c0.3,0.5,0.7,0.6,1.2,0.6c2.7-0.2,5.4-0.1,8,0.8
		c2.1,0.7,3.9,1.9,5.2,3.8c1.4,2.1,1.6,5.2,0.5,7c-2.7-5.7-7.2-8.6-13.5-8.8c3.8,1.6,6.3,4.1,6.3,8.7c-0.5-0.3-0.8-0.6-1.1-0.8
		c-4.2-3.2-8.9-4.9-14.2-4.5c-3.4,0.3-6.6,1.2-9.6,2.8C29.8,135.7,29.8,135.6,29.7,135.6z M77.7,80.3c-0.6,1-1.2,2-1.8,3
		c-1.2,1.7-2.6,3.3-4.4,4.4c-1.4,0.9-2.4,0.6-3.4-0.7c-0.5-0.7-0.8-1.4-1-2.2c-0.2-0.7-0.3-1.4-0.4-2.2c-0.2,0.6-0.3,1.1-0.4,1.7
		c-0.2,2,0,3.9,1.2,5.6c1,1.4,1.8,1.6,3.3,0.9C74.9,88.5,76.8,84.7,77.7,80.3L77.7,80.3C77.7,80.2,77.7,80.3,77.7,80.3z M59.9,95.2
		c-1.2,2.2-1.9,4.5-1.4,7c0.5,2.3,2.3,3.4,4.5,2.7c0.6-0.2,1.2-0.4,1.7-0.7c3.4-2.1,5.7-5.1,7.3-8.7c0-0.1,0-0.2-0.1-0.1
		c-1.5,2-3.3,3.7-5.4,5.2c-1,0.7-2,1.3-3.2,1.6c-1.1,0.3-2-0.1-2.7-1.1c-0.6-0.9-0.8-2-0.9-3.1C59.8,97.1,59.9,96.2,59.9,95.2z
		 M60.1,94.7C60.1,94.7,60.1,94.7,60.1,94.7C60.1,94.7,60.1,94.7,60.1,94.7C60.1,94.7,60.1,94.7,60.1,94.7
		C60.1,94.8,60.1,94.8,60.1,94.7z"/>
	<path class="st0" d="M24.4,90.8c-2.1,3.7-4.4,7.3-7.3,10.4c-1.7,1.9-3.6,3.6-5.7,5c-0.2,0.1-0.5,0.5-0.7,0.3
		c-0.2-0.1-0.1-0.5-0.1-0.7c0.1-5.2,0.6-10.3,1.3-15.4c0.1-0.7,0.2-1.4,0.3-2.1c0-0.4,0.1-0.6,0.5-0.6c2.6-0.2,4.9-1.3,7.1-2.7
		c0.3-0.2,0.5-0.4,0.7,0.1c0.9,2.5,3.2,3.1,5.8,2.6c2-0.4,3.8-1.3,5.4-2.4c0.6-0.4,0.8-0.3,0.9,0.3c0.5,1.6,1.7,2.6,3.4,2.9
		c1.3,0.2,2.5-0.3,3.6-0.9c3-1.7,5.1-4.2,6.3-7.4c0-0.1,0.1-0.2,0-0.3c-0.1-0.1-0.2,0-0.2,0.1c-1.9,1.9-3.8,3.6-6.4,4.4
		c-0.4,0.1-0.9,0.3-1.3,0.3c-1.7,0.1-2.9-1.1-2.7-2.9c0.1-1.7,0.9-3.4,1.2-5.1c0-0.1,0-0.2,0-0.3c-0.1,0-0.1,0.1-0.2,0.1
		c-2.1,2.7-4.8,4.7-7.7,6.4c-0.7,0.4-1.5,0.7-2.3,0.9c-1.8,0.5-3.1-0.6-2.9-2.4c0.1-1.3,0.8-2.5,1.1-3.7c0.2-0.7,0.5-1.3,0.5-2.1
		c-0.5,0.6-0.9,1.1-1.4,1.7c-2.7,3-5.7,5.8-9.6,7.3c-0.4,0.2-0.9,0.5-1.2,0.3c-0.3-0.3,0-0.8,0.1-1.2c0.9-4.3,2.2-8.5,4.5-12.2
		c1.2-2,2.5-4,4.4-5.5c6.4-4.8,13.5-6.4,21.1-3.2c5.1,2.2,8.2,6.3,9.3,11.7c1.4,6.6-0.1,12.8-3,18.8c-3,6.2-7.4,11.2-12.3,15.9
		c-8.1,7.8-17.1,14.2-27.3,19.1c-0.1,0-0.2,0.1-0.3,0.1c-0.4,0.1-0.9,0.6-1.1,0.3c-0.2-0.5-0.2-1.1,0.3-1.6c0.6-0.5,1.2-1,1.9-1.5
		c4.8-3.8,9.4-7.9,13.6-12.4c4.2-4.5,7.9-9.4,10.1-15.2c0.5-1.2,1-2.4,1.1-3.8c-6.3,11.2-15.6,19.5-25.9,27c0.2-1.8,0.4-3.3,0.6-4.9
		c0.1-1.5,0.3-3,0.3-4.4c0-0.4,0.1-0.8,0.5-1c3.2-2.1,5.8-4.9,8.1-7.9c2.7-3.6,4.5-7.6,5.6-12c0-0.1,0.1-0.2,0-0.3
		C24.6,90.7,24.5,90.8,24.4,90.8z M35.8,93.7C35.8,93.7,35.8,93.6,35.8,93.7C35.7,93.6,35.7,93.7,35.8,93.7
		C35.7,93.7,35.7,93.7,35.8,93.7C35.8,93.7,35.8,93.7,35.8,93.7z"/>
	<path class="st0" d="M68.6,29.4c-3.8-7.7-9.9-13.1-17.7-17c4.2-2.5,8.5-4.1,13.2-4.7c8.8-1.2,17.1,0.5,25,4.7
		c-7.3,4-13.1,9.3-15.1,17.8c0.7-0.4,1.2-1.1,1.7-1.7c4.9-5.6,10.7-10.3,17-14.2c5.1-3.1,9.7-6.9,13.6-11.5c0.1-0.1,0.2-0.3,0.4-0.6
		c0.4,1.1,0.4,1.9,0.5,2.7c0.7,6-1.2,11.2-5.4,15.5c-0.4,0.4-0.8,0.4-1.2,0.4c-4.1,0.1-8,0.7-11.8,2.3c-4.4,1.9-8,4.8-11.2,8.4
		c-2.5,2.8-4.1,6.1-5.5,9.6c-0.1,0.2-0.2,0.5-0.3,0.7c-0.2,0-0.2-0.1-0.3-0.2c-3.1-5.4-7.6-9.4-12.9-12.7c-4-2.4-8.3-4-12.7-5.2
		c-2.9-0.8-5.7-1.7-8.3-3.4c-3.7-2.5-5.7-5.9-6.3-10.3c-0.3-2.5-0.1-5,0.5-7.4c0.2-0.1,0.3,0,0.4,0.1c3.6,4.6,8.3,7.9,13.4,10.6
		c4.9,2.6,9.7,5.4,14.1,8.8c1.8,1.4,3.5,3,5.3,4.3c1.3,0.9,2.2,2.2,3.5,3.1c0.1,0,0.2,0.1,0.2,0C68.7,29.5,68.7,29.5,68.6,29.4z"/>
	<path class="st1" d="M100.6,78.9c-6.9-0.1-12.5-2.6-17.3-6.9c-5-4.5-7.9-10-8.9-16.6c-0.3-1.9-0.4-3.7-0.3-5.6
		c0.3-4.9,1.8-9.3,4.5-13.4c2.4-3.5,5.5-6.3,9.2-8.5c3.3-1.9,6.9-2.8,10.7-3.3c3.9-0.5,7.7-0.2,11.3,1.1c8.6,3,14.1,9.1,16.9,17.7
		c1,3.2,1.5,6.5,1.3,9.9c-0.4,5.4-2.2,10.2-5.4,14.6c-4.4,6-10.4,9.6-17.8,10.8C103.4,78.8,101.9,78.8,100.6,78.9z M78.2,51.6
		c-0.1,12.8,10,23,22.6,23.2c13.7,0.2,23.4-10.9,23.4-23.2c0-11.9-9.4-23.5-23.6-23.1C87.9,28.9,78,39.2,78.2,51.6z"/>
	<path class="st0" d="M72.4,114.4c2-1.6,3.9-3.3,5.6-5.1c3.5-3.6,6.5-7.7,8.8-12.2c0.3-0.6,0.6-0.7,1.3-0.5
		c5.3,1.6,10.2,0.7,14.9-1.9c0.2-0.1,0.4-0.2,0.6-0.4c0,0,0.1,0,0.2,0c0.1,0.4,0.3,0.9,0.4,1.3c1.2,3.3,3.4,5.5,6.6,6.7
		c0.7,0.3,0.8,0.4,0.2,1c-5.2,5.5-11.3,9.6-18.7,11.7c-2.7,0.8-5.4,1.1-8.2,1.1C79.5,116.2,76,115.5,72.4,114.4z"/>
	<path class="st1" d="M63,37c1.5,1.3,2.7,2.5,3.8,4c0.4,0.6,0.5,1.2,0.4,1.9c-1.6,6.9-8.5,11.9-15.5,11.2c-7-0.7-12-4.4-14.5-11
		c-2.1-5.5-1-10.7,2.3-15.5c0.8-1.1,1-1.1,2.4-0.8c1.9,0.4,3.6,1.1,5.4,1.8c0.4,0.2,0.8,0.4,1.2,0.6c-4.5,3.4-5.4,8.7-3.3,12.7
		c2.3,4.3,6.4,5.6,9.5,5C59.8,46,62.9,42.2,63,37z"/>
	<path class="st1" d="M132.4,118.2c0,1.9-0.8,3.1-2.3,3.6c-1.6,0.5-3.6-0.4-4.2-1.9c-2.1-5.1-4.2-10.3-6.2-15.5
		c-0.1-0.4-0.1-0.6,0.2-0.8c1.6-1.1,3.3-2,5.2-2.6c0.4-0.1,0.5,0,0.7,0.4c1.8,4.4,3.6,8.7,5.3,13.1c0.3,0.7,0.5,1.3,0.8,2
		C132.2,117,132.5,117.6,132.4,118.2z"/>
	<path class="st0" d="M85,134.7c-3.6-4.2-7.7-7.3-13.3-7.6c1.7,0.7,3.3,1.4,4.5,2.8c1.3,1.4,2,3,2,4.9c-0.6-0.2-1-0.6-1.4-0.9
		c-2.6-2.2-5.6-3-8.9-3.3c-0.6-0.1-1.2-0.1-1.8-0.2c-0.3,0-0.4-0.2-0.5-0.4c-1.7-2.3-3.9-4.3-6.3-5.9c-0.7-0.5-0.4-0.6,0.1-0.8
		c1.2-0.6,2.5-1.2,3.7-2c0.6-0.4,0.9-0.2,1.3,0.3c0.8,1,1.6,1.8,2.4,2.8c0.4,0.6,0.9,0.7,1.6,0.7c2-0.2,4.1-0.2,6.1-0.1
		c2,0.1,4,0.2,5.8,1.2C83.2,127.7,85.3,130.7,85,134.7z"/>
	<path class="st0" d="M129.1,100.8c-0.1,0-0.2-0.1-0.2-0.1c-1.3-2.3-3.6-3.2-6.6-1.9c-2.2,1-4.1,2.4-5.9,3.9
		c-0.4,0.3-0.7,0.6-1.1,0.9c-0.3-0.9-0.2-1.7-0.1-2.5c0.3-3.9,3.4-7.7,7.1-8.8c3.4-1.1,6.4,0.7,7.1,4.3
		C129.5,98,129.5,99.4,129.1,100.8z"/>
	<path class="st0" d="M113.4,96.5c-0.5-1.6-0.5-3.1,0.1-4.6c1.6-4.3,4.7-6.9,9.1-7.9c1.7-0.4,3.3,0,4.7,1.1c1.4,1.1,1.9,3,1.3,4.6
		c-0.1,0.3-0.2,0.6-0.7,0.4c-5.3-2.5-11.5,1.3-13.8,5.6C113.9,95.9,113.8,96.2,113.4,96.5z"/>
	<path class="st1" d="M113,87c-1.2-2.3-2.2-4.5-3.1-6.8c-0.1-0.3-0.1-0.4,0.3-0.5c1.9-0.5,3.8-1.1,5.5-2.1c0.5-0.3,0.7-0.1,0.8,0.4
		c0.5,1.5,1.1,3,1.6,4.5c0.1,0.3,0.2,0.5-0.3,0.7C116,84,114.5,85.4,113,87z"/>
	<path class="st0" d="M71.3,59.7c-1.7-1.7-3-3.7-4.1-5.9c-0.5-1-0.5-1.9,0-2.9c0.8-1.7,1.8-3.2,2.7-4.9c0.7,0.8,0.8,1.6,0.8,2.5
		c-0.3,3.1-0.2,6.1,0.4,9.1c0.1,0.6,0.3,1.2,0.4,1.8C71.4,59.6,71.3,59.7,71.3,59.7z"/>
	<path class="st0" d="M111,98.6c-3.7-1-5.7-6-3.8-9.1c0.3-0.5,0.7-0.9,1.2-1.2c0.6-0.3,1.2-0.3,1.8,0.1c0.6,0.4,0.7,1,0.5,1.7
		c-0.3,1.1-0.6,2.3-0.6,3.5c0,0.8,0,1.7,0.1,2.5C110.3,97,110.6,97.7,111,98.6z"/>
	<path class="st1" d="M55.3,35.1c0,1.2-1.1,2.3-2.4,2.3c-1.3,0-2.3-1.1-2.2-2.4c0-1.2,1.1-2.3,2.3-2.3
		C54.2,32.7,55.3,33.9,55.3,35.1z"/>
	<path class="st0" d="M20.1,63.4c-0.1,0.1-0.2,0.1-0.3,0.2c0,0-0.1-0.1-0.1-0.1c0.1-0.1,0.2-0.2,0.2-0.3
		C20,63.3,20.1,63.4,20.1,63.4z"/>
	<path class="st0" d="M19.9,63.6c-0.1,0.1-0.1,0-0.1-0.1C19.8,63.6,19.8,63.6,19.9,63.6z"/>
	<path class="st0" d="M71.4,59.6c0,0.1,0,0.2-0.1,0.1C71.3,59.7,71.4,59.6,71.4,59.6z"/>
	<path class="st0" d="M29.9,135.7c0,0-0.1,0-0.1,0c0-0.1,0-0.1,0-0.2C29.8,135.6,29.8,135.7,29.9,135.7z"/>
	<polygon class="st2" points="77.7,80.3 77.7,80.2 77.7,80.3 	"/>
	<path class="st2" d="M60.1,94.7C60.1,94.8,60.1,94.8,60.1,94.7C60.1,94.7,60.1,94.7,60.1,94.7C60.1,94.7,60.1,94.7,60.1,94.7
		C60.1,94.7,60.1,94.7,60.1,94.7z"/>
	<path class="st2" d="M36.4,76.5c0.1,0,0.1-0.1,0.2-0.1c0,0.1,0,0.2,0,0.3C36.5,76.7,36.5,76.6,36.4,76.5z"/>
	<path class="st2" d="M45.8,80c0.1-0.1,0.1-0.2,0.2-0.1c0,0,0,0.2,0,0.3C46,80.1,45.9,80,45.8,80z"/>
	<path class="st2" d="M24.4,90.8c0.1-0.1,0.1-0.2,0.1-0.2c0.1,0.1,0.1,0.2,0,0.3C24.6,90.9,24.5,90.9,24.4,90.8z"/>
	<path class="st2" d="M35.8,93.7C35.8,93.7,35.8,93.7,35.8,93.7C35.7,93.7,35.7,93.7,35.8,93.7C35.7,93.7,35.7,93.6,35.8,93.7
		C35.8,93.6,35.8,93.7,35.8,93.7z"/>
	<path class="st2" d="M68.6,29.4c0,0,0.1,0.1,0.1,0.1c0,0.1-0.1,0.1-0.2,0C68.5,29.5,68.6,29.5,68.6,29.4z"/>
	<path class="st3" d="M89.7,58.6c0-4.7,3-8.8,7.8-10.5c2.7-1,5.5-1.5,8.2-2.5c2.1-0.7,4.2-1.6,5.5-3.5c0.6-0.9,1-1.8,1.2-2.8
		c0.1-0.5,0.3-0.6,0.8-0.4c1.9,0.6,1.9,0.6,1.2,2.5c-1.1,3.1-3.6,4.7-6.4,5.9c-2.7,1.1-5.7,1.5-8.4,2.5c-1.3,0.5-2.5,1-3.6,1.8
		c-3.4,2.5-4.5,6.5-2.7,10.3c0.7,1.5,0.7,1.5-0.8,2.2c-1.1,0.5-1.1,0.5-1.6-0.5C90.1,62.1,89.7,60.4,89.7,58.6z"/>
	<path class="st3" d="M107.7,57.1c-0.1,4.7-2.4,8.1-6.6,10.4c-0.7,0.4-1.2,0.4-1.6-0.5c-0.7-1.3-0.7-1.3,0.6-2
		c2.4-1.3,4.2-3.1,4.9-5.8c0.8-2.9-0.1-5.5-1.8-7.8c-0.5-0.6-0.4-0.8,0.3-1.1c2-0.6,2-0.7,2.9,1.3C107.1,53.3,107.7,55.1,107.7,57.1
		z"/>
	<path class="st3" d="M98.7,33.6c0.4,0.2,1.1,0.4,1.7,0.6c0.5,0.2,0.1,0.6,0,0.9c-0.9,2.3-1.1,4.6-0.3,7c0.3,0.8,0.7,1.6,1.2,2.4
		c0.3,0.4,0.2,0.7-0.3,0.8c-2.1,0.6-1.6,1.1-2.8-1.1c-1.3-2.6-2-5.4-1.2-8.3c0.2-0.7,0.4-1.3,0.8-1.9C98,33.6,98.1,33.4,98.7,33.6z"
		/>
	<path class="st3" d="M101.3,37.9c0-1.2,0.1-1.3,1.3-0.8c2.5,1,5,1.9,7.4,2.8c0.3,0.1,1,0.1,0.7,0.7c-0.2,0.5-0.4,1.2-1.3,0.8
		c-2.5-0.9-5-1.7-7.5-2.7C101.6,38.5,101.2,38.4,101.3,37.9z"/>
	<path class="st3" d="M103.5,58.7c0,1-0.3,1.2-1.2,0.9c-2.5-0.9-4.9-1.9-7.4-2.8c-0.7-0.2-0.7-0.6-0.5-1.2c0.2-0.7,0.5-0.7,1.1-0.4
		c2.4,0.9,4.9,1.8,7.3,2.8C103.1,58.1,103.6,58.2,103.5,58.7z"/>
	<path class="st3" d="M94.3,59.7c2.3,0.8,4.4,1.6,6.5,2.4c0.4,0.1,0.4,0.3,0.1,0.6c-0.9,1-1.1,1.1-2.3,0.6c-0.7-0.3-1.4-0.6-2.1-0.7
		C95,62.2,94.6,61.1,94.3,59.7z"/>
	<path class="st3" d="M103,54.8c-1.9-0.7-3.7-1.3-5.7-2c1-0.7,2.1-1,3.2-1.4c0.1-0.1,0.3-0.1,0.4,0c0.9,1,1.8,2,2.3,3.3
		C103.1,54.7,103,54.8,103,54.8z"/>
	<path class="st3" d="M101.8,41.8c1.7,0.6,3.2,1.1,5,1.7c-1.3,0.4-2.3,0.7-3.3,1.1c-0.2,0.1-0.4,0-0.6-0.2
		C102.5,43.6,102,42.8,101.8,41.8z"/>
</g>
</svg>
